<svg role="img" viewBox="0 0 512 512" xmlns="http://www.w3.org/2000/svg">
  <title>EzUI rounded logo light</title>
  <rect x="32" y="32" width="448" height="448" rx="104" fill="#fafafa" stroke="#e4e4e7" stroke-width="6"/>
  <g transform="translate(96 96) scale(5)" color="#09090b">
    <path fill="currentColor" d="M11.6 10.6c12.3-1.8 24-.9 35.2 2.6 3.5 1.1 3.7 5.9.3 7-6.9 2.3-13.2 7.4-18.9 15.3 5.8 2 11.3 6.5 16.5 13.4 1.9 2.6-.9 6.4-4.4 5.7-5.2-7.1-10.6-11.2-16.1-12.4-2.1 3.8-4.1 7.8-6 12.2-3.6.4-6.2-1.2-7.8-4.8 5.9-12.8 14-22.7 24.2-29.8-7.2-.8-14.8-.7-22.8.3-3.3.4-3.6-8.5-.2-9.5Z"/>
    <path fill="currentColor" d="M53.4 8.1c1.2.1 2.3.4 3.2.9-.5 3.4-1.6 6.6-3.4 9.5-1.1.1-2.1-.1-3.1-.5 1.6-2.8 2.7-6.1 3.3-9.9Z"/>
    <path fill="currentColor" d="M59 8.1c1.2.1 2.3.4 3.2.9-.5 3.4-1.6 6.6-3.4 9.5-1.1.1-2.1-.1-3.1-.5 1.6-2.8 2.7-6.1 3.3-9.9Z"/>
  </g>
</svg>
