<svg role="img" viewBox="0 0 132 36" xmlns="http://www.w3.org/2000/svg">
  <title>EZUI</title>
  <g fill="none" fill-rule="evenodd">
    <rect width="36" height="36" rx="10" fill="#F8FAFC"/>
    <path fill="#0A0C10" d="M6.5 6c7-.9 13.7-.5 20.1 1.4 2 .6 2.1 3.3.2 4-3.9 1.3-7.5 4.2-10.8 8.7 3.3 1.1 6.5 3.7 9.4 7.6 1.1 1.5-.5 3.6-2.5 3.2-3-4-6-6.4-9.2-7.1-1.2 2.2-2.3 4.5-3.4 7-2.1.2-3.5-.7-4.4-2.7 3.3-7.3 7.9-12.9 13.7-17-4.1-.4-8.4-.4-13 .2-1.9.2-2.1-4.9-.1-5.3Z"/>
    <path fill="#0A0C10" d="M30.2 4.6c.7.1 1.3.2 1.8.5-.3 1.9-.9 3.7-1.9 5.4-.6.1-1.2 0-1.8-.3.9-1.5 1.5-3.4 1.9-5.6ZM33.4 4.6c.7.1 1.3.2 1.8.5-.3 1.9-.9 3.7-1.9 5.4-.6.1-1.2 0-1.8-.3.9-1.5 1.5-3.4 1.9-5.6Z"/>
    <text x="48" y="26" fill="#F8FAFC" font-family="Inter, Segoe UI, Arial, sans-serif" font-size="25" font-weight="800" letter-spacing="1.2">EZUI</text>
  </g>
</svg>
